# xmcd
#
# Track frame offsets:
#	150
#	12160
#	24214
#	37455
#	49213
#	59800
#	72201
#	85286
#	97021
#	107748
#	118323
#	131296
#	143623
#	156481
#	166657
#	178972
#	190083
#	202118
#	212769
#	222186
#	232043
#	242858
#	254692
#	265653
#	276779
#	288391
#	300594
#	310229
#	319562
#
# Disc length: 4420 seconds
#
# Revision: 1
# Processed by: cddbd v1.5.2PL0 Copyright (c) Steve Scherf et al.
# Submitted via: audiograbber 1.83.01
#
DISCID=bb11421d
DTITLE=Flatt and Scruggs - The Sound Of foggy Mountain Soul
DYEAR=1900
DGENRE=Country
TTITLE0=God Loves His Children
TTITLE1=We'll Meet Again Sweetheart
TTITLE2=Baby Blue Eyes
TTITLE3=Is It To Late Now?
TTITLE4=Cora Is Gone
TTITLE5=Pain In My Heart
TTITLE6='Tis Sweet To Be Remembered
TTITLE7=Roll In My Sweet Babie's Arms
TTITLE8=Preachin', Prayin', Singin'
TTITLE9=Get In Line Brother
TTITLE10=Over The Hills To The Poorhouse
TTITLE11=Flint Hill Special
TTITLE12=Reunion In Heaven
TTITLE13=Foggy Mountain Chimes
TTITLE14=I'd Rather Be Alone
TTITLE15=You Can Feel It In Ypur Soul
TTITLE16=What's Good For You
TTITLE17=Give Me Flowers While I'm Living
TTITLE18=Don't Let Your Deal Go Down
TTITLE19=Let Those Brown Eyes Smile At Me
TTITLE20=Big Black Train
TTITLE21=I Don't Care Anymore
TTITLE22=Farewell Blues
TTITLE23=Cabin On The Hill
TTITLE24=Crying My Heart Out Over You
TTITLE25=Polka On A Banjo
TTITLE26=Ground Speed
TTITLE27=Cripple Creek
TTITLE28=Foggy Mountain Breakdown
EXTD=
EXTT0=
EXTT1=
EXTT2=
EXTT3=
EXTT4=
EXTT5=
EXTT6=
EXTT7=
EXTT8=
EXTT9=
EXTT10=
EXTT11=
EXTT12=
EXTT13=
EXTT14=
EXTT15=
EXTT16=
EXTT17=
EXTT18=
EXTT19=
EXTT20=
EXTT21=
EXTT22=
EXTT23=
EXTT24=
EXTT25=
EXTT26=
EXTT27=
EXTT28=
PLAYORDER=
